<svg viewBox="0 0 100 100" xmlns="http://www.w3.org/2000/svg">
  <!-- Mythril gem — #9333EA purple palette -->
  <polygon points="34,8 66,8 90,32 90,68 66,92 34,92 10,68 10,32" fill="#6010C0"/>
  <polygon points="40,20 60,20 76,36 76,64 60,80 40,80 24,64 24,36" fill="#A850F8"/>
  <polygon points="34,8 66,8 60,20 40,20" fill="#C888FF"/>
  <polygon points="10,32 24,36 24,64 10,68" fill="#9333EA"/>
  <polygon points="90,32 76,36 76,64 90,68" fill="#380080"/>
  <polygon points="34,92 66,92 60,80 40,80" fill="#280060"/>
  <polygon points="10,32 34,8 40,20 24,36" fill="#DDB8FF"/>
  <polygon points="66,8 90,32 76,36 60,20" fill="#5010A0"/>
  <polygon points="10,68 34,92 40,80 24,64" fill="#180040"/>
  <polygon points="90,68 66,92 60,80 76,64" fill="#0C0028"/>
  <polygon points="44,28 56,28 66,40 66,60 56,72 44,72 34,60 34,40" fill="#E8CCFF" opacity="0.5"/>
  <polygon points="40,20 54,20 48,30 36,30" fill="white" opacity="0.38"/>
</svg>
